<svg xmlns="http://www.w3.org/2000/svg"  viewBox="0 0 256 256" width="512px" height="512px"><circle cx="128.234" cy="29.568" r="12.294" fill="#8AC6DD" transform="rotate(-80.781 128.235 29.566)"/><path fill="#3A312A" d="M128.234,43.362c-7.607,0-13.794-6.188-13.794-13.793c0-7.606,6.188-13.794,13.794-13.794 c7.606,0,13.794,6.188,13.794,13.794C142.028,37.174,135.841,43.362,128.234,43.362z M128.234,18.774 c-5.952,0-10.794,4.842-10.794,10.794c0,5.952,4.842,10.793,10.794,10.793c5.952,0,10.794-4.842,10.794-10.793 C139.028,23.617,134.186,18.774,128.234,18.774z"/><path fill="#8AC6DD" d="M218.182,124.029H38.286c0-49.679,40.27-89.948,89.948-89.948C177.912,34.08,218.182,74.35,218.182,124.029 z"/><path fill="#3A312A" d="M218.183,125.529H38.286c-0.828,0-1.5-0.671-1.5-1.5c0-50.425,41.024-91.448,91.448-91.448 s91.448,41.023,91.448,91.448C219.683,124.857,219.011,125.529,218.183,125.529z M39.799,122.529H216.67 c-0.802-48.083-40.165-86.948-88.436-86.948S40.601,74.446,39.799,122.529z"/><path fill="#6CA8BF" d="M216.674,122.525h-15c-0.77-45.56-36.16-82.85-80.94-86.62c2.47-0.21,4.97-0.32,7.5-0.32 C176.504,35.585,215.864,74.445,216.674,122.525z"/><path fill="#D4D853" d="M47.693,26.083c0,0,3.41,12.659,13.229,13.246c0,0-13.107,4.525-13.328,14.202 c0,0-2.58-13.572-12.932-14.059C34.662,39.473,46.719,37.647,47.693,26.083z"/><path fill="#3A312A" d="M47.593,55.031c-0.713,0-1.335-0.506-1.473-1.217c-0.023-0.124-2.495-12.417-11.528-12.842 c-0.771-0.037-1.388-0.651-1.428-1.421c-0.04-0.771,0.511-1.445,1.273-1.561c0.441-0.069,10.9-1.817,11.761-12.033 c0.062-0.725,0.635-1.301,1.359-1.367c0.736-0.058,1.393,0.399,1.584,1.101c0.031,0.116,3.261,11.627,11.87,12.141 c0.714,0.043,1.298,0.584,1.396,1.292c0.098,0.708-0.318,1.388-0.994,1.623c-0.121,0.042-12.125,4.31-12.319,12.819 c-0.018,0.767-0.61,1.396-1.375,1.459C47.677,55.029,47.635,55.031,47.593,55.031z M39.848,39.301 c3.881,1.97,6.233,5.748,7.591,8.878c2.027-4.022,5.945-6.789,8.954-8.429c-4.137-1.843-6.787-5.653-8.339-8.724 C46.26,35.388,42.78,37.896,39.848,39.301z"/><path fill="#D4D853" d="M25.983,43.064c0,0,2.412,8.954,9.357,9.369c0,0-9.271,3.201-9.427,10.046c0,0-1.825-9.6-9.147-9.944 C16.766,52.534,25.294,51.243,25.983,43.064z"/><path fill="#3A312A" d="M25.912,63.979c-0.714,0-1.337-0.507-1.473-1.22c-0.016-0.082-1.705-8.442-7.744-8.726 c-0.77-0.037-1.388-0.651-1.428-1.421c-0.04-0.771,0.511-1.445,1.273-1.561c0.296-0.047,7.368-1.243,7.947-8.114 c0.061-0.726,0.636-1.303,1.361-1.368c0.721-0.06,1.392,0.399,1.581,1.102l0,0c0.022,0.079,2.229,7.919,7.999,8.265 c0.714,0.043,1.299,0.584,1.396,1.293c0.097,0.709-0.32,1.388-0.997,1.622c-0.081,0.028-8.286,2.953-8.416,8.662 c-0.018,0.767-0.611,1.397-1.376,1.461C25.995,63.977,25.953,63.979,25.912,63.979z M21.39,52.451 c2.109,1.333,3.525,3.396,4.45,5.281c1.377-2.233,3.518-3.873,5.368-4.974c-2.288-1.27-3.887-3.351-4.944-5.225 C25.09,49.82,23.247,51.41,21.39,52.451z"/><path fill="#D4D853" d="M25.983,16.406c0,0,2.412,8.954,9.357,9.37c0,0-9.271,3.201-9.427,10.045c0,0-1.825-9.6-9.147-9.944 C16.766,25.877,25.294,24.585,25.983,16.406z"/><path fill="#3A312A" d="M25.912,37.321c-0.714,0-1.337-0.507-1.473-1.22c-0.016-0.082-1.705-8.442-7.744-8.727 c-0.77-0.037-1.388-0.651-1.428-1.421c-0.04-0.771,0.511-1.445,1.273-1.56c0.296-0.047,7.368-1.243,7.947-8.114 c0.061-0.726,0.636-1.303,1.361-1.368c0.721-0.059,1.392,0.399,1.581,1.102l0,0c0.022,0.079,2.229,7.919,7.999,8.265 c0.714,0.043,1.299,0.585,1.396,1.294c0.097,0.709-0.32,1.388-0.997,1.622c-0.08,0.028-8.286,2.953-8.416,8.662 c-0.018,0.767-0.611,1.397-1.376,1.461C25.995,37.32,25.953,37.321,25.912,37.321z M21.39,25.794 c2.108,1.333,3.526,3.395,4.45,5.281c1.377-2.233,3.518-3.873,5.368-4.974c-2.288-1.269-3.887-3.351-4.944-5.225 C25.09,23.163,23.247,24.752,21.39,25.794z"/><path fill="#8AC6DD" d="M90.853,146.774H221.14c6.075,0,11-4.925,11-11v-0.745c0-6.075-4.925-11-11-11H35.328 c-6.075,0-11,4.925-11,11v0.745c0,6.075,4.925,11,11,11h41.954H90.853z"/><path fill="#3A312A" d="M221.14,148.274H90.852c-0.828,0-1.5-0.671-1.5-1.5s0.672-1.5,1.5-1.5H221.14c5.238,0,9.5-4.262,9.5-9.5 v-0.745c0-5.238-4.262-9.5-9.5-9.5H35.328c-5.238,0-9.5,4.262-9.5,9.5v0.745c0,5.238,4.262,9.5,9.5,9.5h41.954 c0.828,0,1.5,0.671,1.5,1.5s-0.672,1.5-1.5,1.5H35.328c-6.893,0-12.5-5.607-12.5-12.5v-0.745c0-6.893,5.607-12.5,12.5-12.5H221.14 c6.893,0,12.5,5.607,12.5,12.5v0.745C233.64,142.667,228.032,148.274,221.14,148.274z"/><path fill="#FCE8CB" d="M50.24,218.094l89.654-2.494c7.689-0.481,15.095-3.039,21.436-7.424l74.678-57.068 c2.446-1.691,3.245-4.067,3.315-6.356c0.154-5.473-4.26-10.279-9.733-10.535c-2.101-0.107-4.24,0.34-6.206,1.353l-42.289,21.87 l-66.86-0.195c-14.57-0.042-28.85,4.03-41.203,11.757l-9.429,5.886c-3.605,2.254-7.786,3.45-12.051,3.438l-1.195-0.003 L50.24,218.094z"/><path fill="#3A312A" d="M50.24,219.594c-0.391,0-0.767-0.152-1.047-0.426c-0.291-0.283-0.454-0.672-0.453-1.078l0.115-39.771 c0.002-0.827,0.674-1.496,1.5-1.496c0.001,0,0.003,0,0.004,0l1.195,0.004c3.937,0.027,7.875-1.099,11.253-3.21l9.43-5.887 c12.603-7.883,27.149-11.996,42.001-11.984l66.492,0.194l41.964-21.702c2.166-1.116,4.575-1.644,6.972-1.519 c6.221,0.29,11.333,5.82,11.156,12.076c-0.099,3.215-1.469,5.824-3.962,7.547l-74.619,57.026 c-6.608,4.572-14.283,7.23-22.253,7.729l-89.706,2.496C50.268,219.594,50.254,219.594,50.24,219.594z M51.852,179.826 l-0.107,36.726l88.107-2.451c7.373-0.462,14.523-2.938,20.624-7.158l74.62-57.026c1.784-1.235,2.657-2.925,2.728-5.21 c0.131-4.656-3.672-8.775-8.305-8.991c-1.867-0.1-3.756,0.315-5.448,1.188l-42.288,21.869c-0.215,0.11-0.434,0.127-0.693,0.167 l-66.859-0.195c-0.074,0-0.149-0.001-0.223-0.001c-14.231,0-28.119,3.984-40.181,11.529l-9.431,5.887 C60.626,178.518,56.295,179.782,51.852,179.826z"/><path fill="#3A312A" d="M110.612,191.242c-0.661,0-1.267-0.441-1.447-1.11c-0.216-0.8,0.258-1.623,1.058-1.839 c10.751-2.898,19.468-4.667,27.897-6.376c8.741-1.773,16.997-3.447,26.109-6.167c4.065-1.213,8.674-2.589,12.018-5.45 c2.918-2.496,5.071-6.973,3.542-10.701c-0.314-0.767,0.052-1.643,0.818-1.957c0.77-0.315,1.643,0.052,1.957,0.818 c2.167,5.282-0.745,11.022-4.368,14.12c-3.827,3.273-8.759,4.745-13.11,6.044c-9.241,2.758-17.561,4.445-26.37,6.231 c-8.385,1.701-17.054,3.458-27.713,6.333C110.873,191.225,110.741,191.242,110.612,191.242z"/><path fill="#EF6D7A" d="M17.234,192.429v47.165h23.078c5.553,0,10.054-4.502,10.054-10.055v-60.916 c0-5.553-4.502-10.054-10.054-10.054H17.234v19.831V192.429z"/><path fill="#3A312A" d="M40.312,241.094H17.234c-0.828,0-1.5-0.671-1.5-1.5v-47.165c0-0.829,0.672-1.5,1.5-1.5s1.5,0.671,1.5,1.5 v45.665h21.578c4.717,0,8.554-3.837,8.554-8.555v-60.916c0-4.716-3.837-8.554-8.554-8.554H18.734v18.331c0,0.829-0.672,1.5-1.5,1.5 s-1.5-0.671-1.5-1.5V158.57c0-0.829,0.672-1.5,1.5-1.5h23.078c6.371,0,11.554,5.183,11.554,11.554v60.916 C51.866,235.911,46.684,241.094,40.312,241.094z"/><circle cx="33.8" cy="222.79" r="7.584" fill="#87796F" transform="rotate(-80.804 33.802 222.801)"/><path fill="#3A312A" d="M33.801,231.874c-5.01,0-9.085-4.075-9.085-9.085c0-5.009,4.075-9.084,9.085-9.084 c5.009,0,9.084,4.075,9.084,9.084C42.885,227.799,38.81,231.874,33.801,231.874z M33.801,216.706c-3.356,0-6.085,2.729-6.085,6.084 c0,3.355,2.729,6.085,6.085,6.085c3.354,0,6.084-2.729,6.084-6.085C39.885,219.436,37.155,216.706,33.801,216.706z"/><path fill="#FAE6CA" d="M100.352,50.386h55.296c5.066,0,9.173,4.107,9.173,9.173v55.296c0,5.066-4.107,9.173-9.173,9.173h-55.296 c-5.066,0-9.173-4.107-9.173-9.173V59.559C91.179,54.493,95.286,50.386,100.352,50.386z"/><path fill="#3A312A" d="M155.648,125.529h-55.297c-5.885,0-10.673-4.788-10.673-10.673V59.559c0-5.885,4.788-10.673,10.673-10.673 h55.297c5.885,0,10.673,4.788,10.673,10.673v55.296C166.321,120.741,161.533,125.529,155.648,125.529z M100.352,51.886 c-4.23,0-7.673,3.442-7.673,7.673v55.296c0,4.231,3.442,7.673,7.673,7.673h55.297c4.23,0,7.673-3.442,7.673-7.673V59.559 c0-4.231-3.442-7.673-7.673-7.673H100.352z"/><path fill="#D5DC57" d="M112.895,74.132h-5.977c-1.536,0-2.782-1.245-2.782-2.782v-5.977c0-1.536,1.245-2.782,2.782-2.782h5.977 c1.536,0,2.782,1.245,2.782,2.782v5.977C115.677,72.887,114.431,74.132,112.895,74.132z"/><path fill="#3A312A" d="M112.895,75.632h-5.977c-2.36,0-4.281-1.921-4.281-4.282v-5.977c0-2.361,1.921-4.282,4.281-4.282h5.977 c2.361,0,4.282,1.921,4.282,4.282v5.977C117.177,73.711,115.256,75.632,112.895,75.632z M106.918,64.092 c-0.706,0-1.281,0.575-1.281,1.282v5.977c0,0.706,0.575,1.282,1.281,1.282h5.977c0.707,0,1.282-0.575,1.282-1.282v-5.977 c0-0.706-0.575-1.282-1.282-1.282H106.918z"/><path fill="#3A312A" d="M135.681,75.632c-0.384,0-0.768-0.146-1.061-0.439l-8.761-8.76c-0.586-0.585-0.586-1.535,0-2.121 c0.586-0.586,1.535-0.586,2.121,0l7.7,7.7l15.122-15.123c0.586-0.586,1.535-0.586,2.121,0c0.586,0.585,0.586,1.535,0,2.121 l-16.183,16.183C136.448,75.486,136.064,75.632,135.681,75.632z"/><path fill="#D5DC57" d="M112.895,95.299h-5.977c-1.536,0-2.782-1.245-2.782-2.782V86.54c0-1.536,1.245-2.782,2.782-2.782h5.977 c1.536,0,2.782,1.245,2.782,2.782v5.977C115.677,94.053,114.431,95.299,112.895,95.299z"/><path fill="#3A312A" d="M112.895,96.799h-5.977c-2.36,0-4.281-1.921-4.281-4.282V86.54c0-2.361,1.921-4.282,4.281-4.282h5.977 c2.361,0,4.282,1.921,4.282,4.282v5.977C117.177,94.878,115.256,96.799,112.895,96.799z M106.918,85.259 c-0.706,0-1.281,0.575-1.281,1.282v5.977c0,0.707,0.575,1.282,1.281,1.282h5.977c0.707,0,1.282-0.575,1.282-1.282V86.54 c0-0.706-0.575-1.282-1.282-1.282H106.918z"/><path fill="#3A312A" d="M135.681,96.799c-0.384,0-0.768-0.146-1.061-0.439l-8.761-8.76c-0.586-0.585-0.586-1.535,0-2.121 c0.586-0.586,1.535-0.586,2.121,0l7.7,7.7l15.122-15.122c0.586-0.586,1.535-0.586,2.121,0c0.586,0.585,0.586,1.535,0,2.121 l-16.183,16.183C136.448,96.652,136.064,96.799,135.681,96.799z"/><path fill="#D5DC57" d="M112.895,116.465h-5.977c-1.536,0-2.782-1.245-2.782-2.782v-5.977c0-1.536,1.245-2.782,2.782-2.782h5.977 c1.536,0,2.782,1.245,2.782,2.782v5.977C115.677,115.22,114.431,116.465,112.895,116.465z"/><path fill="#3A312A" d="M112.895,117.965h-5.977c-2.36,0-4.281-1.921-4.281-4.282v-5.977c0-2.361,1.921-4.282,4.281-4.282h5.977 c2.361,0,4.282,1.921,4.282,4.282v5.977C117.177,116.044,115.256,117.965,112.895,117.965z M106.918,106.425 c-0.706,0-1.281,0.575-1.281,1.282v5.977c0,0.706,0.575,1.282,1.281,1.282h5.977c0.707,0,1.282-0.575,1.282-1.282v-5.977 c0-0.706-0.575-1.282-1.282-1.282H106.918z"/><path fill="#3A312A" d="M135.681,117.965c-0.384,0-0.768-0.146-1.061-0.439l-8.761-8.76c-0.586-0.585-0.586-1.535,0-2.121 c0.586-0.586,1.535-0.586,2.121,0l7.7,7.699l15.122-15.122c0.586-0.586,1.535-0.586,2.121,0c0.586,0.585,0.586,1.535,0,2.121 l-16.183,16.183C136.448,117.819,136.064,117.965,135.681,117.965z"/><path fill="#6CA8BF" d="M230.36,132.79c-0.23-0.03-0.46-0.06-0.69-0.07c-2.4-0.13-4.81,0.4-6.98,1.52l-21.33,11.03h-15l21.33-11.03 c2.17-1.12,4.58-1.65,6.98-1.52c0.23,0.01,0.46,0.04,0.69,0.07c-1.01-4.16-4.76-7.26-9.22-7.26h15 C225.6,125.53,229.35,128.63,230.36,132.79z"/></svg>