<svg data-v-423bf9ae="" xmlns="http://www.w3.org/2000/svg" viewBox="0 0 411 90" class="iconLeftSlogan"><!----><!----><!----><g data-v-423bf9ae="" id="e140ad0e-ca4d-4ba3-bef5-c249b1a338c6" fill="black" transform="matrix(3.582089552238806,0,0,3.582089552238806,104.37680016168906,-12.752238124164187)"><path d="M1.34 14.28L1.34 14.28Q1.34 13.66 1.64 12.55Q1.93 11.44 2.46 9.95L2.46 9.95Q3.33 7.59 4.09 6.01Q4.86 4.44 5.59 3.56L5.59 3.56Q5.75 3.58 6.00 3.70Q6.24 3.81 6.48 3.94Q6.72 4.07 6.91 4.21Q7.10 4.35 7.15 4.44L7.15 4.44Q6.06 5.73 5.24 7.21Q4.41 8.69 3.72 10.61L3.72 10.61Q3.14 12.26 2.83 13.59Q2.52 14.91 2.52 15.79L2.52 15.79Q2.52 16.03 2.52 16.09Q2.52 16.14 2.53 16.20L2.53 16.20Q2.34 16.17 2.20 16.10Q2.06 16.03 2.02 15.93L2.02 15.93Q1.99 15.86 1.86 15.73Q1.74 15.60 1.64 15.53L1.64 15.53Q1.51 15.44 1.43 15.09Q1.34 14.73 1.34 14.28ZM8.47 14.87L8.47 14.87Q8.20 14.64 8.11 14.31Q8.02 13.97 8.02 13.73L8.02 13.73Q8.02 13.44 8.09 13.23L8.09 13.23Q8.04 13.23 7.84 13.45Q7.64 13.68 7.41 13.99Q7.18 14.29 6.96 14.59Q6.73 14.88 6.62 15.02L6.62 15.02Q6.44 15.22 6.28 15.33Q6.12 15.44 6.02 15.46L6.02 15.46Q5.80 15.44 5.55 15.37Q5.31 15.29 5.09 15.15Q4.87 15.01 4.71 14.81Q4.55 14.62 4.49 14.36L4.49 14.36Q4.49 13.97 4.52 13.72Q4.54 13.47 4.61 13.17L4.61 13.17Q4.73 12.64 4.98 11.97Q5.22 11.30 5.54 10.65Q5.87 10.00 6.27 9.43Q6.66 8.86 7.11 8.54L7.11 8.54Q7.24 8.54 7.41 8.56Q7.57 8.58 7.75 8.64Q7.92 8.69 8.09 8.77Q8.25 8.85 8.36 8.97L8.36 8.97Q8.23 9.11 7.72 9.91Q7.21 10.71 6.58 12.21L6.58 12.21Q6.51 12.36 6.41 12.66Q6.31 12.95 6.22 13.27Q6.12 13.59 6.05 13.90Q5.99 14.21 5.99 14.39L5.99 14.39Q5.99 14.50 6.03 14.56Q6.06 14.62 6.09 14.64L6.09 14.64Q6.30 14.56 6.62 14.18Q6.94 13.80 7.52 13.02L7.52 13.02Q7.66 12.82 7.85 12.57Q8.04 12.32 8.23 12.03Q8.43 11.75 8.60 11.44Q8.78 11.13 8.89 10.82L8.89 10.82Q8.95 10.65 9.04 10.42Q9.13 10.19 9.26 9.94Q9.39 9.69 9.57 9.43Q9.74 9.17 9.98 8.95L9.98 8.95Q10.16 8.95 10.37 8.99Q10.58 9.03 10.77 9.09Q10.96 9.16 11.10 9.23Q11.24 9.31 11.31 9.39L11.31 9.39Q11.06 10.01 10.75 10.61Q10.44 11.21 10.18 11.79Q9.91 12.38 9.73 12.95Q9.55 13.52 9.55 14.07L9.55 14.07Q9.55 14.36 9.60 14.58Q9.65 14.80 9.70 14.95Q9.76 15.09 9.81 15.19Q9.86 15.29 9.86 15.36L9.86 15.36Q9.86 15.37 9.83 15.40L9.83 15.40Q9.81 15.41 9.80 15.41L9.80 15.41Q9.70 15.41 9.55 15.37Q9.39 15.33 9.21 15.25Q9.02 15.18 8.83 15.08Q8.64 14.98 8.47 14.87ZM15.93 15.09L15.93 15.09Q15.78 15.33 15.45 15.48Q15.12 15.62 14.83 15.65L14.83 15.65Q14.59 15.37 14.29 14.89Q14 14.41 13.73 13.76L13.73 13.76Q13.02 14.41 12.31 14.93Q11.59 15.46 10.98 15.82L10.98 15.82Q10.82 15.79 10.72 15.65Q10.63 15.51 10.61 15.29L10.61 15.29Q10.89 15.13 11.28 14.88Q11.66 14.63 12.06 14.33Q12.46 14.03 12.83 13.70Q13.20 13.37 13.47 13.06L13.47 13.06Q13.23 12.50 13.03 11.91Q12.82 11.31 12.68 10.76Q12.53 10.21 12.45 9.75Q12.36 9.30 12.36 9.02L12.36 9.02Q12.36 8.82 12.41 8.76Q12.46 8.69 12.64 8.69L12.64 8.69Q12.78 8.69 12.99 8.72Q13.19 8.75 13.40 8.79Q13.61 8.83 13.82 8.88Q14.03 8.93 14.18 8.99L14.18 8.99Q14.15 9.14 14.15 9.25Q14.15 9.37 14.15 9.58L14.15 9.58Q14.15 10.12 14.25 10.69Q14.34 11.26 14.55 11.91L14.55 11.91Q15.12 11.26 15.61 10.45Q16.10 9.65 16.60 8.53L16.60 8.53Q16.95 8.60 17.21 8.73Q17.46 8.86 17.53 9.02L17.53 9.02Q17.37 9.66 16.66 10.64Q15.95 11.62 14.84 12.73L14.84 12.73Q15.04 13.26 15.32 13.85Q15.60 14.45 15.93 15.09ZM21.28 14.87L21.28 14.87Q21.01 14.64 20.92 14.31Q20.83 13.97 20.83 13.73L20.83 13.73Q20.83 13.44 20.90 13.23L20.90 13.23Q20.85 13.23 20.65 13.45Q20.45 13.68 20.22 13.99Q19.99 14.29 19.77 14.59Q19.54 14.88 19.43 15.02L19.43 15.02Q19.25 15.22 19.09 15.33Q18.93 15.44 18.83 15.46L18.83 15.46Q18.61 15.44 18.36 15.37Q18.12 15.29 17.90 15.15Q17.68 15.01 17.52 14.81Q17.36 14.62 17.30 14.36L17.30 14.36Q17.30 13.97 17.32 13.72Q17.35 13.47 17.42 13.17L17.42 13.17Q17.54 12.64 17.79 11.97Q18.03 11.30 18.35 10.65Q18.68 10.00 19.07 9.43Q19.47 8.86 19.92 8.54L19.92 8.54Q20.05 8.54 20.22 8.56Q20.38 8.58 20.56 8.64Q20.73 8.69 20.89 8.77Q21.06 8.85 21.17 8.97L21.17 8.97Q21.04 9.11 20.53 9.91Q20.02 10.71 19.39 12.21L19.39 12.21Q19.32 12.36 19.22 12.66Q19.12 12.95 19.03 13.27Q18.93 13.59 18.87 13.90Q18.80 14.21 18.80 14.39L18.80 14.39Q18.80 14.50 18.84 14.56Q18.87 14.62 18.90 14.64L18.90 14.64Q19.11 14.56 19.43 14.18Q19.75 13.80 20.33 13.02L20.33 13.02Q20.47 12.82 20.66 12.57Q20.85 12.32 21.04 12.03Q21.24 11.75 21.41 11.44Q21.59 11.13 21.70 10.82L21.70 10.82Q21.76 10.65 21.85 10.42Q21.94 10.19 22.07 9.94Q22.20 9.69 22.38 9.43Q22.55 9.17 22.79 8.95L22.79 8.95Q22.97 8.95 23.18 8.99Q23.39 9.03 23.58 9.09Q23.77 9.16 23.91 9.23Q24.05 9.31 24.12 9.39L24.12 9.39Q23.87 10.01 23.56 10.61Q23.25 11.21 22.99 11.79Q22.72 12.38 22.54 12.95Q22.36 13.52 22.36 14.07L22.36 14.07Q22.36 14.36 22.41 14.58Q22.46 14.80 22.51 14.95Q22.57 15.09 22.62 15.19Q22.67 15.29 22.67 15.36L22.67 15.36Q22.67 15.37 22.64 15.40L22.64 15.40Q22.62 15.41 22.61 15.41L22.61 15.41Q22.51 15.41 22.36 15.37Q22.20 15.33 22.02 15.25Q21.83 15.18 21.64 15.08Q21.45 14.98 21.28 14.87ZM24.05 14.90L24.05 14.90Q24.12 14.49 24.30 13.82Q24.47 13.16 24.71 12.41Q24.95 11.66 25.21 10.91Q25.48 10.15 25.73 9.55L25.73 9.55Q25.91 9.11 26.05 8.87Q26.19 8.62 26.36 8.46L26.36 8.46Q26.56 8.48 26.77 8.55Q26.98 8.62 27.17 8.72Q27.37 8.82 27.52 8.93Q27.68 9.03 27.76 9.13L27.76 9.13Q27.38 9.58 27.10 10.15Q26.81 10.72 26.52 11.62L26.52 11.62Q27.27 10.95 27.85 10.33Q28.43 9.72 28.94 8.96L28.94 8.96Q29.02 8.89 29.23 8.89L29.23 8.89Q29.43 8.89 29.61 8.95Q29.79 9.02 29.86 9.13L29.86 9.13Q29.61 9.80 29.61 10.46L29.61 10.46Q29.61 11.07 29.79 11.38L29.79 11.38Q29.78 11.47 29.60 11.70Q29.43 11.94 29.22 12.15L29.22 12.15Q28.84 11.96 28.55 11.61Q28.25 11.27 28.11 10.86L28.11 10.86Q27.45 11.33 26.99 11.77Q26.53 12.21 26.20 12.75Q25.87 13.29 25.64 13.99Q25.41 14.69 25.20 15.65L25.20 15.65Q25.07 15.64 24.90 15.56Q24.72 15.48 24.55 15.37Q24.37 15.26 24.23 15.13Q24.09 15.01 24.05 14.90ZM35.29 13.01L35.29 13.01Q34.97 14.03 34.65 14.87Q34.33 15.71 33.96 16.41Q33.60 17.12 33.18 17.72Q32.76 18.31 32.26 18.84L32.26 18.84Q31.61 19.52 30.93 19.87Q30.24 20.23 29.55 20.23L29.55 20.23Q29.20 20.23 28.86 20.15Q28.52 20.08 28.22 19.94Q27.92 19.81 27.69 19.64Q27.45 19.46 27.36 19.26L27.36 19.26Q27.36 19.10 27.55 18.97L27.55 18.97Q27.72 19.12 27.83 19.21Q27.94 19.29 28.05 19.35Q28.15 19.40 28.27 19.42Q28.39 19.43 28.55 19.43L28.55 19.43Q29.34 19.43 30.11 18.96Q30.87 18.49 31.55 17.63Q32.23 16.77 32.79 15.55Q33.35 14.32 33.74 12.81L33.74 12.81Q33.56 13.09 33.29 13.50Q33.03 13.90 32.70 14.30Q32.38 14.70 32.04 15.02Q31.70 15.34 31.37 15.46L31.37 15.46Q31.15 15.44 30.91 15.37Q30.66 15.29 30.44 15.15Q30.23 15.01 30.06 14.81Q29.89 14.62 29.83 14.36L29.83 14.36Q29.83 13.96 29.86 13.71Q29.89 13.47 29.96 13.17L29.96 13.17Q30.09 12.64 30.33 11.97Q30.58 11.30 30.91 10.65Q31.23 10.00 31.63 9.43Q32.03 8.86 32.47 8.54L32.47 8.54Q32.58 8.54 32.75 8.56Q32.91 8.58 33.10 8.64Q33.28 8.69 33.45 8.77Q33.61 8.85 33.74 8.97L33.74 8.97Q33.59 9.11 33.07 9.91Q32.55 10.71 31.92 12.21L31.92 12.21Q31.85 12.36 31.75 12.66Q31.65 12.95 31.56 13.27Q31.47 13.59 31.40 13.90Q31.33 14.21 31.33 14.39L31.33 14.39Q31.33 14.50 31.37 14.56Q31.40 14.62 31.43 14.64L31.43 14.64Q31.68 14.60 32.10 14.23Q32.52 13.86 33.05 13.08L33.05 13.08Q33.39 12.57 33.67 12.07Q33.95 11.58 34.22 11.07Q34.50 10.57 34.79 10.04Q35.08 9.51 35.42 8.95L35.42 8.95Q35.60 8.95 35.81 8.99Q36.02 9.03 36.22 9.09Q36.41 9.16 36.56 9.23Q36.71 9.31 36.78 9.39L36.78 9.39Q36.34 10.32 35.97 11.20Q35.59 12.08 35.29 13.01ZM40.29 12.71L40.29 12.71Q40.29 11.91 40.62 11.16Q40.95 10.42 41.49 9.84Q42.03 9.25 42.72 8.90Q43.41 8.54 44.16 8.54L44.16 8.54Q44.88 8.54 45.28 8.90Q45.67 9.27 45.67 9.94L45.67 9.94Q45.67 10.26 45.58 10.56Q45.49 10.86 45.34 11.10Q45.19 11.34 45.00 11.49Q44.80 11.63 44.60 11.63L44.60 11.63Q44.44 11.63 44.26 11.53Q44.09 11.42 43.97 11.26L43.97 11.26Q44.91 10.40 44.91 9.70L44.91 9.70Q44.91 9.30 44.59 9.30L44.59 9.30Q44.31 9.30 43.89 9.56Q43.47 9.83 43.08 10.26L43.08 10.26Q42.48 10.93 42.16 11.75Q41.85 12.57 41.85 13.47L41.85 13.47Q41.85 14.60 42.35 14.83L42.35 14.83Q42.56 14.80 42.84 14.70Q43.12 14.60 43.44 14.44Q43.76 14.28 44.11 14.07Q44.45 13.86 44.77 13.62L44.77 13.62Q44.83 13.66 44.87 13.75Q44.91 13.83 44.91 13.90L44.91 13.90Q44.67 14.20 44.37 14.48Q44.06 14.76 43.72 14.99Q43.39 15.22 43.07 15.38Q42.76 15.54 42.52 15.58L42.52 15.58Q42.06 15.54 41.65 15.29Q41.24 15.05 40.94 14.66Q40.64 14.27 40.47 13.76Q40.29 13.26 40.29 12.71ZM50.92 9.52L50.92 9.52Q51.06 9.52 51.25 9.57Q51.44 9.62 51.59 9.70Q51.74 9.77 51.85 9.86Q51.95 9.94 51.95 10.01L51.95 10.01Q51.67 10.60 51.44 11.19Q51.20 11.79 51.03 12.33Q50.86 12.88 50.77 13.36Q50.68 13.83 50.68 14.18L50.68 14.18Q50.68 14.57 50.76 14.83Q50.85 15.09 51.04 15.20L51.04 15.20Q50.88 15.32 50.61 15.39Q50.34 15.46 50.13 15.46L50.13 15.46Q49.38 15.46 49.38 14.42L49.38 14.42Q49.38 13.62 49.91 12.24L49.91 12.24Q49.63 12.88 49.27 13.45Q48.90 14.01 48.52 14.45Q48.15 14.88 47.76 15.15Q47.38 15.43 47.05 15.48L47.05 15.48Q46.54 15.46 46.21 14.99Q45.89 14.52 45.89 13.79L45.89 13.79Q45.89 13.01 46.23 12.14Q46.56 11.27 47.09 10.53Q47.61 9.79 48.23 9.29Q48.85 8.79 49.42 8.76L49.42 8.76Q49.56 8.81 49.74 8.93Q49.91 9.06 50.07 9.23Q50.23 9.39 50.34 9.57Q50.46 9.74 50.47 9.87L50.47 9.87Q49.91 9.95 49.32 10.42Q48.72 10.88 48.24 11.53Q47.75 12.18 47.45 12.92Q47.14 13.66 47.14 14.31L47.14 14.31Q47.14 14.57 47.33 14.64L47.33 14.64Q47.74 14.56 48.27 13.95Q48.80 13.34 49.56 12.07L49.56 12.07Q49.70 11.82 49.88 11.51Q50.05 11.20 50.23 10.86Q50.41 10.53 50.59 10.18Q50.76 9.84 50.92 9.52ZM54.05 9.81L53.26 9.81Q53.19 9.73 53.13 9.46Q53.07 9.18 53.07 8.99L53.07 8.99Q53.44 9.02 53.77 9.04Q54.11 9.06 54.39 9.07L54.39 9.07Q54.60 8.65 54.85 8.24Q55.09 7.83 55.32 7.48Q55.55 7.14 55.76 6.90Q55.96 6.66 56.07 6.59L56.07 6.59Q56.21 6.59 56.43 6.64Q56.64 6.69 56.87 6.77Q57.09 6.85 57.27 6.93Q57.46 7.01 57.53 7.10L57.53 7.10Q57.11 7.63 56.81 8.09Q56.50 8.54 56.15 9.13L56.15 9.13Q56.43 9.13 56.72 9.11Q57.01 9.10 57.30 9.07L57.30 9.07Q57.37 9.14 57.41 9.25Q57.46 9.35 57.46 9.46L57.46 9.46Q56.77 9.72 55.79 9.74L55.79 9.74Q55.44 10.42 55.17 11.08Q54.89 11.75 54.71 12.36Q54.52 12.98 54.41 13.52Q54.31 14.07 54.31 14.50L54.31 14.50Q54.31 15.12 54.77 15.19L54.77 15.19Q55.19 15.13 55.57 14.98Q55.94 14.83 56.24 14.59L56.24 14.59Q56.32 14.71 56.34 14.80L56.34 14.80Q56.25 14.92 56.05 15.09Q55.85 15.26 55.61 15.42Q55.37 15.58 55.15 15.69Q54.92 15.81 54.81 15.82L54.81 15.82Q54.46 15.81 54.11 15.67Q53.76 15.53 53.47 15.32Q53.19 15.11 53.00 14.85Q52.82 14.59 52.82 14.34L52.82 14.34Q52.82 14 52.91 13.49Q53.00 12.98 53.17 12.38Q53.34 11.77 53.56 11.12Q53.79 10.46 54.05 9.81L54.05 9.81ZM62.37 9.38L62.37 9.38Q62.31 10.25 62.06 10.87Q61.81 11.49 61.34 11.96Q60.87 12.43 60.20 12.81Q59.53 13.19 58.63 13.54L58.63 13.54Q58.63 13.62 58.63 13.71Q58.62 13.80 58.62 13.90L58.62 13.90Q58.62 14.08 58.65 14.28Q58.67 14.48 58.74 14.64Q58.81 14.81 58.94 14.92Q59.07 15.02 59.26 15.02L59.26 15.02Q59.64 15.02 60.00 14.85Q60.37 14.69 60.70 14.44Q61.03 14.20 61.31 13.91Q61.60 13.62 61.82 13.38L61.82 13.38Q61.96 13.51 62.06 13.62L62.06 13.62Q61.43 14.46 60.68 15.02Q59.93 15.57 59.26 15.72L59.26 15.72Q58.30 15.61 57.76 15.02Q57.22 14.42 57.22 13.58L57.22 13.58Q57.22 13.01 57.38 12.41Q57.54 11.82 57.83 11.26Q58.11 10.71 58.50 10.22Q58.88 9.73 59.33 9.37Q59.77 9.00 60.23 8.79Q60.70 8.58 61.17 8.58L61.17 8.58Q61.81 8.67 62.37 9.38ZM61.40 9.84L61.40 9.84Q61.03 9.90 60.62 10.15Q60.21 10.40 59.86 10.82Q59.50 11.24 59.21 11.80Q58.91 12.36 58.74 13.01L58.74 13.01Q59.86 12.45 60.61 11.63Q61.35 10.81 61.40 9.84ZM62.68 14.90L62.68 14.90Q62.75 14.49 62.92 13.82Q63.10 13.16 63.34 12.41Q63.57 11.66 63.84 10.91Q64.11 10.15 64.36 9.55L64.36 9.55Q64.54 9.11 64.68 8.87Q64.82 8.62 64.99 8.46L64.99 8.46Q65.18 8.48 65.39 8.55Q65.60 8.62 65.80 8.72Q66.00 8.82 66.15 8.93Q66.30 9.03 66.39 9.13L66.39 9.13Q66.01 9.58 65.72 10.15Q65.44 10.72 65.14 11.62L65.14 11.62Q65.90 10.95 66.48 10.33Q67.06 9.72 67.56 8.96L67.56 8.96Q67.65 8.89 67.86 8.89L67.86 8.89Q68.05 8.89 68.24 8.95Q68.42 9.02 68.49 9.13L68.49 9.13Q68.24 9.80 68.24 10.46L68.24 10.46Q68.24 11.07 68.42 11.38L68.42 11.38Q68.40 11.47 68.23 11.70Q68.05 11.94 67.84 12.15L67.84 12.15Q67.47 11.96 67.17 11.61Q66.88 11.27 66.74 10.86L66.74 10.86Q66.08 11.33 65.62 11.77Q65.16 12.21 64.83 12.75Q64.50 13.29 64.27 13.99Q64.04 14.69 63.83 15.65L63.83 15.65Q63.70 15.64 63.52 15.56Q63.35 15.48 63.17 15.37Q63 15.26 62.86 15.13Q62.72 15.01 62.68 14.90ZM68.67 14.24L68.67 14.24Q68.67 14.11 68.69 13.92Q68.71 13.73 68.77 13.42Q68.82 13.10 68.92 12.66Q69.01 12.21 69.15 11.58L69.15 11.58Q69.17 11.44 69.27 11.13Q69.37 10.82 69.53 10.48Q69.69 10.14 69.92 9.81Q70.15 9.49 70.48 9.34L70.48 9.34Q70.71 9.39 71.11 9.63Q71.50 9.86 71.78 10.26L71.78 10.26Q71.46 10.63 71.24 10.99Q71.02 11.35 70.85 11.75Q70.67 12.14 70.53 12.56Q70.38 12.98 70.20 13.44L70.20 13.44Q70.04 13.83 69.92 14.25Q69.79 14.66 69.78 14.97L69.78 14.97Q69.78 15.22 69.77 15.32Q69.76 15.43 69.69 15.43L69.69 15.43Q69.64 15.43 69.47 15.36Q69.30 15.29 69.13 15.14Q68.95 14.99 68.81 14.77Q68.67 14.55 68.67 14.24ZM71.34 8.16L71.34 8.16Q71.34 8.08 71.39 7.91L71.39 7.91Q71.32 7.84 71.27 7.70Q71.22 7.56 71.22 7.45L71.22 7.45Q71.22 7.32 71.25 7.11Q71.29 6.89 71.34 6.64Q71.40 6.38 71.48 6.11Q71.57 5.84 71.65 5.61L71.65 5.61Q71.82 5.61 72.06 5.71Q72.31 5.80 72.56 5.94Q72.81 6.09 73.02 6.27Q73.23 6.44 73.35 6.59L73.35 6.59Q73.19 6.75 72.94 7.02Q72.69 7.29 72.45 7.59Q72.21 7.90 72.02 8.16Q71.82 8.43 71.76 8.54L71.76 8.54Q71.60 8.51 71.47 8.39Q71.34 8.27 71.34 8.16ZM74.23 8.39L74.23 8.39Q74.59 8.50 74.91 8.88Q75.24 9.27 75.39 9.73L75.39 9.73Q75.24 10.11 74.91 10.64Q74.59 11.17 74.27 11.72Q73.95 12.28 73.69 12.78Q73.43 13.27 73.39 13.59L73.39 13.59Q73.61 13.36 73.89 13.04Q74.16 12.73 74.42 12.41Q74.68 12.10 74.90 11.84Q75.12 11.58 75.25 11.45L75.25 11.45Q75.52 11.17 75.88 10.80Q76.24 10.43 76.64 10.10Q77.04 9.77 77.45 9.54Q77.85 9.31 78.19 9.31L78.19 9.31Q78.55 9.31 78.80 9.55Q79.04 9.80 79.18 10.07L79.18 10.07Q79.18 10.09 79.08 10.14Q78.97 10.19 78.78 10.42L78.78 10.42Q78.58 10.67 78.34 11.11Q78.09 11.55 77.86 12.06Q77.63 12.57 77.48 13.10Q77.32 13.64 77.32 14.07L77.32 14.07Q77.32 14.42 77.41 14.52Q77.50 14.62 77.67 14.62L77.67 14.62Q77.83 14.62 77.99 14.55Q78.16 14.48 78.26 14.48L78.26 14.48Q78.32 14.50 78.35 14.60Q78.39 14.69 78.39 14.76L78.39 14.76Q78.27 14.85 78.12 14.95Q77.97 15.05 77.80 15.13Q77.63 15.22 77.47 15.27Q77.31 15.33 77.18 15.33L77.18 15.33Q76.78 15.33 76.52 15.21Q76.26 15.09 76.11 14.90Q75.96 14.70 75.91 14.43Q75.85 14.15 75.85 13.85L75.85 13.85Q75.85 13.68 75.88 13.47Q75.91 13.26 75.99 12.97Q76.08 12.68 76.23 12.29Q76.38 11.89 76.62 11.33L76.62 11.33Q76.59 11.33 76.24 11.52Q75.89 11.72 75.49 12.12L75.49 12.12Q74.83 12.75 74.31 13.37Q73.78 13.99 73.23 14.74L73.23 14.74Q72.93 15.18 72.70 15.48Q72.46 15.78 72.30 15.88L72.30 15.88Q72.00 15.71 71.86 15.41Q71.72 15.11 71.65 14.78L71.65 14.78Q71.65 14.52 71.73 14.11Q71.81 13.71 71.94 13.21Q72.07 12.71 72.27 12.17Q72.46 11.62 72.70 11.07L72.70 11.07Q73.23 9.84 73.67 9.14Q74.12 8.44 74.23 8.39ZM76.69 19.35L76.69 19.35Q76.69 19.26 76.75 19.19Q76.80 19.12 76.87 19.05L76.87 19.05Q77.04 19.21 77.16 19.29Q77.28 19.38 77.39 19.43Q77.49 19.49 77.60 19.50Q77.71 19.52 77.87 19.52L77.87 19.52Q78.60 19.52 79.25 19.13Q79.91 18.75 80.49 18.02Q81.07 17.29 81.55 16.24Q82.03 15.19 82.39 13.86L82.39 13.86Q82.22 14.03 81.98 14.23Q81.73 14.43 81.47 14.62Q81.20 14.80 80.94 14.95Q80.68 15.11 80.50 15.18L80.50 15.18Q80.26 15.13 80.06 14.97Q79.86 14.81 79.70 14.57Q79.55 14.34 79.46 14.04Q79.38 13.73 79.38 13.40L79.38 13.40Q79.38 12.85 79.58 12.28Q79.79 11.70 80.12 11.15Q80.46 10.60 80.91 10.11Q81.37 9.62 81.88 9.25Q82.39 8.89 82.92 8.67Q83.44 8.46 83.94 8.46L83.94 8.46Q84.43 8.46 84.68 8.66Q84.92 8.86 85.04 9.35L85.04 9.35Q84.88 9.27 84.64 9.27L84.64 9.27Q84.31 9.27 83.87 9.53Q83.43 9.80 82.97 10.23Q82.52 10.65 82.07 11.21Q81.62 11.76 81.28 12.33Q80.93 12.91 80.72 13.45Q80.50 14 80.50 14.43L80.50 14.43Q80.50 14.53 80.51 14.55Q80.53 14.57 80.56 14.57L80.56 14.57Q80.68 14.57 80.90 14.43Q81.12 14.29 81.39 14.08Q81.66 13.86 81.96 13.57Q82.25 13.29 82.52 12.99L82.52 12.99Q83.12 12.32 83.62 11.49Q84.11 10.65 84.41 9.87L84.41 9.87Q84.78 9.90 85.08 10.00Q85.37 10.09 85.48 10.21L85.48 10.21Q85.01 11.30 84.72 12.04Q84.43 12.78 84.22 13.36L84.22 13.36Q83.85 14.36 83.52 15.20Q83.19 16.03 82.84 16.74Q82.50 17.44 82.10 18.05Q81.70 18.66 81.20 19.22L81.20 19.22Q80.96 19.49 80.66 19.69Q80.36 19.89 80.05 20.03Q79.73 20.17 79.43 20.24Q79.13 20.31 78.88 20.31L78.88 20.31Q78.54 20.31 78.19 20.24Q77.84 20.16 77.54 20.03Q77.24 19.89 77.01 19.72Q76.79 19.54 76.69 19.35Z"></path></g><!----><g data-v-423bf9ae="" id="1fed0baf-e580-4370-bb35-a9504042fe54" transform="matrix(1.3932749463547194,0,0,1.3932749463547194,-3.7670414916056174,-3.062628773030667)" stroke="none" fill="black"><style></style><path d="M53.99 32.05H16.006a.999.999 0 01-1-1.008c.087-10.94 9.055-19.839 19.992-19.839s19.905 8.9 19.992 19.839a1 1 0 01-1 1.008zm-36.948-2h35.912c-.599-9.378-8.452-16.847-17.956-16.847S17.64 20.673 17.042 30.05z"></path><path d="M33.998 8.203h2v4h-2z"></path><path d="M34.998 8.702c-1.654 0-3-1.346-3-3s1.346-3 3-3 3 1.346 3 3-1.346 3-3 3zm0-4a1.001 1.001 0 000 2 1.001 1.001 0 000-2zM55.186 36.244H14.81c-.327 0-.633-.16-.82-.429l-2.812-4.04a1.002 1.002 0 01.821-1.571h46a1.002 1.002 0 01.821 1.57l-2.811 4.041a1.002 1.002 0 01-.822.429zm-39.854-2h39.332l1.42-2.04H13.912l1.42 2.04z"></path><path d="M61.998 36.203h-54a1 1 0 110-2h54a1 1 0 110 2zM24.368 63.478h-8.73a1 1 0 01-1-1v-23.28a1 1 0 011-1h8.73a1 1 0 011 1v23.28a1 1 0 01-1 1zm-7.73-2h6.73v-21.28h-6.73v21.28z"></path><path d="M15.637 67.298H3.997a1 1 0 01-1-1v-27.1a1 1 0 011-1h11.64a1 1 0 011 1v27.1a1 1 0 01-1 1zm-10.64-2h9.64v-25.1h-9.64v25.1z"></path><path d="M9.818 53.293a1 1 0 01-1-1v-5.82a1 1 0 112 0v5.82a1 1 0 01-1 1zM41.071 60.568H24.368a1 1 0 01-1-1v-17.46a1 1 0 011-1h2.095c2.218 0 4.397.73 6.134 2.052l.243.175a8.216 8.216 0 004.943 1.658c4.231 0 7.769 2.312 8.585 5.432a28.35 28.35 0 008.563-2.804l4.413-2.243c.802-.418 1.711-.633 2.694-.633 2.127 0 3.96 1.034 4.668 2.632.774 1.732-.007 3.645-1.9 4.65l-9.061 4.858a31.134 31.134 0 01-14.674 3.683zm-15.703-2H41.07c4.78 0 9.527-1.191 13.729-3.446l9.064-4.86c.954-.506 1.352-1.318 1.015-2.071-.378-.852-1.545-1.446-2.841-1.446-.657 0-1.256.139-1.78.411l-4.416 2.246a30.288 30.288 0 01-10.173 3.14l-.011.002a29.193 29.193 0 01-3.961.269h-5.69a1 1 0 110-2h5.69c.889 0 1.78-.044 2.66-.13-.723-2.103-3.437-3.69-6.574-3.69-2.18 0-4.356-.727-6.127-2.046l-.25-.181a8.187 8.187 0 00-4.943-1.658h-1.095v15.46z"></path></g><!----><g data-v-423bf9ae="" id="f0fc27ef-7ca6-4f93-92cf-3a82af20f51f" fill="black" transform="matrix(1.2153106828237836,0,0,1.2153106828237836,108.7757405754187,53.08488179444299)"><path d="M1.57 6.33L0.33 6.16L0.36 5.89L3.47 5.89L3.44 6.16L2.28 6.32L2.28 9.95L7.19 9.95L7.19 6.33L5.93 6.16L5.98 5.89L9.09 5.89L9.04 6.16L7.90 6.32L7.90 13.95L9.15 14.08L9.10 14.40L6.00 14.40L6.06 14.11L7.19 13.90L7.19 10.36L2.28 10.36L2.28 13.95L3.55 14.08L3.48 14.40L0.39 14.40L0.42 14.11L1.57 13.90L1.57 6.33ZM20.92 6.98L19.55 10.75L22.24 10.75L20.92 6.98ZM19.60 14.40L16.87 14.40L16.91 14.11L17.88 13.90L20.87 5.82L21.23 5.73L24.07 13.95L24.97 14.08L24.92 14.39L22.12 14.39L22.18 14.10L23.32 13.90L22.37 11.13L19.41 11.13L18.40 13.95L19.66 14.08L19.60 14.40ZM36.07 14.40L32.66 14.40L32.70 14.11L33.78 13.90L33.78 6.51L32.67 6.36L32.73 6.12Q32.90 6.09 33.35 6.02Q33.80 5.94 34.03 5.91Q34.25 5.88 34.67 5.84Q35.08 5.81 35.49 5.81L35.49 5.81Q36.18 5.81 36.77 5.96Q37.36 6.10 37.82 6.40Q38.28 6.69 38.54 7.18Q38.80 7.66 38.80 8.29L38.80 8.29Q38.80 8.90 38.52 9.43Q38.24 9.97 37.78 10.33Q37.32 10.69 36.72 10.90Q36.11 11.10 35.48 11.10L35.48 11.10Q35.21 11.10 35.14 11.09L35.14 11.09L35.07 10.80L35.44 10.78Q36.10 10.75 36.60 10.55Q37.09 10.36 37.38 10.03Q37.67 9.70 37.81 9.30Q37.95 8.90 37.95 8.43L37.95 8.43Q37.95 7.98 37.79 7.57Q37.62 7.16 37.30 6.83Q36.98 6.50 36.45 6.31Q35.93 6.11 35.28 6.11L35.28 6.11L34.53 6.15L34.53 13.95L36.13 14.08L36.07 14.40ZM49.90 14.40L46.49 14.40L46.53 14.11L47.61 13.90L47.61 6.51L46.50 6.36L46.56 6.12Q46.73 6.09 47.18 6.02Q47.63 5.94 47.85 5.91Q48.08 5.88 48.49 5.84Q48.90 5.81 49.32 5.81L49.32 5.81Q50.01 5.81 50.60 5.96Q51.19 6.10 51.65 6.40Q52.11 6.69 52.37 7.18Q52.63 7.66 52.63 8.29L52.63 8.29Q52.63 8.90 52.35 9.43Q52.07 9.97 51.61 10.33Q51.15 10.69 50.54 10.90Q49.94 11.10 49.31 11.10L49.31 11.10Q49.03 11.10 48.97 11.09L48.97 11.09L48.90 10.80L49.27 10.78Q49.93 10.75 50.43 10.55Q50.92 10.36 51.21 10.03Q51.50 9.70 51.64 9.30Q51.78 8.90 51.78 8.43L51.78 8.43Q51.78 7.98 51.61 7.57Q51.45 7.16 51.13 6.83Q50.80 6.50 50.28 6.31Q49.76 6.11 49.11 6.11L49.11 6.11L48.36 6.15L48.36 13.95L49.96 14.08L49.90 14.40ZM61.26 6.35L60.31 6.15L60.33 5.90L63.18 5.90L63.16 6.15L62.02 6.32L64.16 10.49L66.28 6.34L65.02 6.14L65.03 5.89L67.70 5.89L67.68 6.14L66.79 6.32L64.41 11.05L64.41 13.94L65.65 14.08L65.59 14.40L62.45 14.40L62.49 14.11L63.68 13.90L63.68 11.05L61.26 6.35ZM85.34 10.25L85.34 10.25Q85.34 9.73 85.45 9.21Q85.55 8.68 85.75 8.17Q85.96 7.66 86.28 7.22Q86.61 6.77 87.02 6.44Q87.44 6.10 88.00 5.90Q88.55 5.71 89.19 5.71L89.19 5.71Q90.60 5.71 91.51 6.39L91.51 6.39L91.30 8.70L90.98 8.64L90.77 6.87Q90.18 6.09 88.87 6.09L88.87 6.09Q87.72 6.09 86.89 7.19Q86.06 8.30 86.06 10.00L86.06 10.00Q86.06 11.92 86.87 12.97Q87.67 14.03 89.15 14.03L89.15 14.03Q89.88 14.03 90.57 13.65Q91.26 13.28 91.73 12.74L91.73 12.74L91.89 12.99Q91.72 13.25 91.43 13.51Q91.14 13.77 90.76 14.02Q90.37 14.27 89.87 14.42Q89.36 14.57 88.83 14.57L88.83 14.57Q87.26 14.57 86.30 13.40Q85.34 12.22 85.34 10.25ZM100.78 6.33L99.54 6.16L99.57 5.89L102.67 5.89L102.64 6.16L101.49 6.32L101.49 11.01Q101.49 11.87 101.67 12.49Q101.85 13.10 102.20 13.45Q102.55 13.79 102.99 13.95Q103.44 14.11 104.03 14.11L104.03 14.11Q105.21 14.11 105.85 13.40Q106.49 12.68 106.49 11.33L106.49 11.33L106.49 6.33L105.22 6.16L105.25 5.89L108.16 5.89L108.10 6.16L106.97 6.32L106.95 11.05Q106.94 12.78 106.20 13.68Q105.46 14.58 103.80 14.58L103.80 14.58Q103.30 14.58 102.88 14.49Q102.46 14.40 102.06 14.16Q101.66 13.93 101.39 13.56Q101.11 13.19 100.94 12.60Q100.78 12.01 100.78 11.24L100.78 11.24L100.78 6.33ZM115.85 13.60L115.85 13.60L116.05 11.66L116.38 11.71L116.57 13.21Q116.80 13.64 117.33 13.89Q117.86 14.14 118.46 14.14L118.46 14.14Q119.14 14.14 119.62 13.74Q120.10 13.33 120.10 12.61L120.10 12.61Q120.10 12.20 119.89 11.83Q119.67 11.46 119.32 11.18Q118.98 10.90 118.56 10.63Q118.14 10.36 117.72 10.07Q117.30 9.79 116.96 9.48Q116.61 9.17 116.40 8.75Q116.18 8.33 116.18 7.84L116.18 7.84Q116.18 6.88 116.88 6.29Q117.57 5.71 118.45 5.71L118.45 5.71Q119.04 5.71 119.58 5.90Q120.12 6.09 120.45 6.46L120.45 6.46L120.22 8.58L119.91 8.53L119.72 6.87Q119.54 6.54 119.12 6.32Q118.71 6.10 118.28 6.10L118.28 6.10Q117.68 6.10 117.27 6.48Q116.85 6.87 116.85 7.52L116.85 7.52Q116.85 7.96 117.08 8.35Q117.30 8.74 117.65 9.03Q118.00 9.32 118.43 9.61Q118.85 9.89 119.28 10.17Q119.70 10.45 120.06 10.75Q120.41 11.05 120.63 11.45Q120.85 11.85 120.85 12.29L120.85 12.29Q120.85 13.28 120.10 13.93Q119.35 14.57 118.10 14.57L118.10 14.57Q117.39 14.57 116.79 14.30Q116.19 14.03 115.85 13.60ZM128.63 8.09L128.56 5.89L135.63 5.89L135.39 8.16L135.04 8.12L134.93 6.24L132.39 6.24L132.39 13.90L133.60 14.08L133.53 14.40L130.43 14.40L130.46 14.11L131.66 13.90L131.66 6.24L129.23 6.24L128.99 8.15L128.63 8.09ZM144.12 9.75L144.12 9.75Q144.12 11.03 144.48 12.01Q144.84 13.00 145.56 13.57Q146.28 14.14 147.25 14.14L147.25 14.14Q147.83 14.14 148.32 13.92Q148.81 13.70 149.16 13.33Q149.50 12.96 149.74 12.49Q149.99 12.01 150.10 11.50Q150.22 10.99 150.22 10.48L150.22 10.48Q150.22 8.50 149.37 7.29Q148.52 6.07 147.07 6.07L147.07 6.07Q146.49 6.07 146.00 6.28Q145.50 6.49 145.16 6.85Q144.82 7.21 144.58 7.69Q144.34 8.16 144.23 8.69Q144.12 9.21 144.12 9.75ZM143.36 10.16L143.36 10.16Q143.36 8.16 144.46 6.92Q145.56 5.69 147.40 5.69L147.40 5.69Q148.53 5.69 149.35 6.27Q150.17 6.86 150.56 7.84Q150.96 8.83 150.96 10.11L150.96 10.11Q150.96 10.75 150.81 11.38Q150.66 12.00 150.33 12.58Q150.01 13.17 149.55 13.61Q149.08 14.05 148.41 14.32Q147.73 14.58 146.92 14.58L146.92 14.58Q145.87 14.58 145.05 13.98Q144.22 13.37 143.79 12.37Q143.36 11.37 143.36 10.16ZM161.49 14.40L158.66 14.40L158.69 14.17L159.83 13.96L160.40 6.36L159.14 6.14L159.19 5.89L161.37 5.89L161.85 7.18L164.00 12.84L166.45 6.88L166.87 5.89L169.09 5.89L169.06 6.14L167.88 6.34L168.26 14.01L169.49 14.12L169.48 14.40L166.32 14.40L166.36 14.17L167.53 13.96L167.14 6.41L163.96 13.99L163.62 14.05L160.83 6.53L160.29 14.01L161.53 14.12L161.49 14.40ZM178.41 6.36L177.19 6.18L177.24 5.89L183.43 5.89L183.22 8.07L182.90 8.03L182.77 6.24L179.12 6.24L179.12 9.89L181.41 9.89L181.67 8.94L182.03 8.89L181.81 11.55L181.46 11.61L181.35 10.26L179.12 10.26L179.12 14.03L182.96 14.03L183.47 12.19L183.75 12.26L183.54 14.40L177.21 14.40L177.25 14.11L178.41 13.90L178.41 6.36ZM193.28 6.18L193.28 10.11L194.83 10.11Q195.51 9.86 195.97 9.28Q196.43 8.70 196.43 8.02L196.43 8.02Q196.43 7.11 195.81 6.63Q195.19 6.15 194.11 6.15L194.11 6.15L193.28 6.18ZM194.65 14.40L191.46 14.40L191.51 14.11L192.58 13.90L192.58 6.51L191.48 6.37L191.54 6.13Q193.37 5.83 194.45 5.83L194.45 5.83Q195.21 5.83 195.82 6.05Q196.43 6.27 196.81 6.73Q197.18 7.19 197.18 7.83L197.18 7.83Q197.18 8.57 196.76 9.14Q196.33 9.72 195.30 10.23L195.30 10.23L195.30 10.23L196.62 12.19Q197.33 13.23 197.67 13.58Q198.02 13.92 198.40 14.05L198.40 14.05L198.73 14.16L198.69 14.42Q198.39 14.52 198.05 14.52L198.05 14.52Q197.76 14.52 197.51 14.40Q197.26 14.28 197.02 14.01Q196.77 13.75 196.59 13.48Q196.40 13.22 196.13 12.77L196.13 12.77L194.74 10.49L193.28 10.49L193.28 13.95L194.72 14.08L194.65 14.40Z"></path></g></svg>